<svg xmlns="http://www.w3.org/2000/svg" viewBox="0 0 52.695 87.094">
  <defs/>
  <path fill="#a0616a" d="M42.313 30.47l-3.188-1.533 2.656-6.9.7-3.479a2.664 2.664 0 011.785-1.984 2.819 2.819 0 012.68.487 2.561 2.561 0 01.356 3.64l-2.6 3.124z"/>
  <path fill="#e6e6e6" d="M43.38 29.704l-.588 1.77-2.638 7.95a4.383 4.383 0 01-3.7 2.932 4.479 4.479 0 01-4.3-2.038l-8.554-14.1a4.366 4.366 0 01-.349-.69 4.284 4.284 0 012.417-5.527 4.593 4.593 0 015.852 2.067l5.222 10.7 2.39-5.11z"/>
  <path fill="#2f2e41" d="M42.148 81.06l-5.844.511-3.185-22.227c-10.508 1.7-20.421 2.245-29 .188a5.391 5.391 0 01-3.443-2.534 5.029 5.029 0 01-.4-4.152 45.154 45.154 0 014.951-9.342l14.079 4.854.531 2.044 15.017-1.828a5.664 5.664 0 014.257 1.216 5.228 5.228 0 011.943 3.84z"/>
  <path fill="#2f2e41" d="M48.513 85.367a1.982 1.982 0 00-.935-1.971l-6-2.831-4.523.549-1.068 3.683a1.9 1.9 0 00.385 1.5 2.058 2.058 0 001.4.766l8.44.018a2.076 2.076 0 002.3-1.715zM43.624 78.218l-5.844.511-3.188-22.227c-10.508 1.7-20.421 2.245-29 .188a5.391 5.391 0 01-3.443-2.534 5.029 5.029 0 01-.4-4.152A45.153 45.153 0 016.7 40.662l14.079 4.854.531 2.044 15.017-1.828a5.663 5.663 0 014.257 1.216 5.228 5.228 0 011.943 3.84z"/>
  <path fill="#2f2e41" d="M49.989 82.524a1.982 1.982 0 00-.935-1.972l-6-2.831-4.523.549-1.067 3.684a1.9 1.9 0 00.385 1.5 2.058 2.058 0 001.4.766l8.44.018a2.076 2.076 0 002.3-1.714z"/>
  <ellipse cx="7.173" cy="6.898" fill="#a0616a" rx="7.173" ry="6.898" transform="translate(25.826 3.617)"/>
  <path fill="#a0616a" d="M32.733 24.567l-8.235-1.022 3.188-9.453h7.969z"/>
  <path fill="#e6e6e6" d="M34.974 34.098a10.714 10.714 0 01-1.792 3.085 15.138 15.138 0 01-3.9 3.268c-.258.161-.526.315-.8.467l-1.582 1.3-5.59 4.579-15.408-5.62a57.677 57.677 0 0112.5-17.629 8.937 8.937 0 019.36-3.433l5.764 1.386c2.055 4.653 2.817 8.933 1.448 12.597z"/>
  <path fill="#3f3d56" d="M47.525 14.222a.568.568 0 01.69-.065c.141.143 4.756 2.773 4.466 3.034a.52.52 0 01-.16.433L41.797 27.892a.565.565 0 01-.4.155c-.216.265-3.731-3.587-3.908-3.661a.52.52 0 01.011-.752z"/>
  <path fill="#fff" d="M51.601 17.08l-.436-.268a.391.391 0 01-.087.486.431.431 0 01-.511.039l-2.824-1.867a.4.4 0 01-.172-.388.407.407 0 01.282-.323c-.112-.036-.293-.255-.414-.117l-9.5 8.979c-.338.158 3.452 3.317 3.454 3.441.283.3 10.028-9.75 10.235-9.757a.142.142 0 00.043-.119.145.145 0 00-.07-.106z"/>
  <path fill="#6c63ff" d="M40.636 21.639l2.914 2.643 6.932-6.587-3.518-2.2z"/>
  <path fill="#e6e6e6" d="M50.214 19.32c-.166-.117.574-.635.606-.72a.106.106 0 01.143 0c.166.117-.574.635-.606.72a.106.106 0 01-.143 0zM49.192 20.166c.091-.032.625-.741.749-.583.166.117-.574.635-.606.72-.091.09-.237-.049-.143-.137z"/>
  <path fill="#6c63ff" d="M41.384 23.907a.682.682 0 01-1.362 0 .682.682 0 011.362 0z"/>
  <path d="M33.181 37.182a15.137 15.137 0 01-3.9 3.268c-.258.161-.526.315-.8.467l-1.582 1.3c-3.14-3.969-2.964-16.03-2.964-16.03l4.78.46z" opacity=".2"/>
  <path fill="#a0616a" d="M42.562 34.02l-3.188-1.533 2.656-6.9.7-3.479a2.664 2.664 0 011.785-1.984 2.82 2.82 0 012.68.487 2.561 2.561 0 01.356 3.64l-2.6 3.124z"/>
  <path fill="#e6e6e6" d="M39.376 31.214l4.25 2.044-3.226 9.72a4.358 4.358 0 01-3.188 2.844 4.5 4.5 0 01-4.815-1.949l-8.553-14.1a4.244 4.244 0 011.455-5.9 4.667 4.667 0 013.639-.511 4.475 4.475 0 012.826 2.263l5.221 10.7z"/>
  <path fill="#2f2e41" d="M35.698 7.826a7.1 7.1 0 001.953 1.109 2.706 2.706 0 002.2-.152 2.374 2.374 0 001.026-2.249 4.753 4.753 0 00-1.038-2.349 10.706 10.706 0 00-16.913-.09 5.529 5.529 0 00-1.261 2.983c-.1 1.916 1.261 3.705 1.115 5.619a5.281 5.281 0 01-2.762 3.866 22.106 22.106 0 01-4.684 1.814 10.987 10.987 0 00-4.4 2.311 4.147 4.147 0 00-1.187 4.449 5.441 5.441 0 003.075 2.544 15.553 15.553 0 0010.757.388c1.295-.432 2.709-1.3 2.728-2.613a5.8 5.8 0 00-.42-1.66 1.668 1.668 0 01.212-1.628 1.628 1.628 0 012.021.015 10.219 10.219 0 011.479 1.575 4.457 4.457 0 003.742 1.453 3.061 3.061 0 002.7-2.671c.1-2.312-2.913-3.759-3.241-6.052-.219-1.531.818-2.932 1.716-4.213s1.733-2.887 1.1-4.309"/>
</svg>