<svg xmlns="http://www.w3.org/2000/svg" data-name="Layer 1" viewBox="0 0 878.64034 552.21468">
  <defs/>
  <path fill="#ccc" d="M837.86295 552.21468H95.22937a24.9009 24.9009 0 01-24.9009-24.9009q403.8068-46.93008 792.43539 0a24.90091 24.90091 0 01-24.90091 24.9009z"/>
  <path fill="#e6e6e6" d="M862.76386 528.77851l-792.43539-1.46476 91.84049-154.53222.43941-.73238V31.47769A31.47506 31.47506 0 01194.08606 0h540.52592a31.47506 31.47506 0 0131.47769 31.47769v342.915z"/>
  <path fill="#fff" d="M193.36834 21.97141a10.26484 10.26484 0 00-10.25332 10.25332v310.52921a10.2653 10.2653 0 0010.25332 10.25332h546.35564a10.26575 10.26575 0 0010.25332-10.25332V32.22473a10.26529 10.26529 0 00-10.25332-10.25332z"/>
  <path fill="#ccc" d="M196.95903 394.02055a4.40643 4.40643 0 00-3.99233 2.55761l-28.29891 61.51994a4.39408 4.39408 0 003.99161 6.231h595.11114a4.39378 4.39378 0 003.92939-6.35969l-30.76-61.51994a4.372 4.372 0 00-3.92939-2.42887z"/>
  <circle cx="464.34902" cy="10.25332" r="6.59142" fill="#fff"/>
  <path fill="#ccc" d="M405.85444 476.04714a4.401 4.401 0 00-4.24265 3.25137l-7.09851 26.36568a4.39386 4.39386 0 004.24265 5.5372h134.99756a4.39329 4.39329 0 004.15111-5.83187l-9.12615-26.36568a4.39658 4.39658 0 00-4.15254-2.9567zM766.09 366.922v5.86H162.169l.454-.733v-5.127H766.09zM691.54732 380.34397a1.07171 1.07171 0 00-1.03315.79175l-1.7286 6.42045a1.07 1.07 0 001.03316 1.34839h32.87394a1.06983 1.06983 0 001.01085-1.42015l-2.22235-6.42044a1.07064 1.07064 0 00-1.01121-.72zM643.54732 380.34397a1.07171 1.07171 0 00-1.03315.79175l-1.7286 6.42045a1.07 1.07 0 001.03316 1.34839h32.87394a1.06983 1.06983 0 001.01085-1.42015l-2.22235-6.42044a1.07064 1.07064 0 00-1.01121-.72z"/>
  <path fill="#3f3d56" d="M504.48137 421.13959h2.57647l-5.153-344.38824h-2.57648l.10279 6.8706h-57.74666l.10278-6.8706h-2.57647l-5.153 344.38824h2.57648l.33411-22.3294h67.17883zm-3.71375-248.2h-60.41955l.62963-42.08234h59.16028zm.03858 2.57648l.62963 42.08233h-61.756l.62964-42.08233zm.66821 44.65881l.62964 42.08234h-63.09241l.62964-42.08234zm.66821 44.65881l.62964 42.08234h-64.42883l.62964-42.08234zm.66821 44.65882l.62964 42.08239h-65.7653l.62964-42.08239zm-3.34106-223.29408l.62964 42.08234h-59.08313l.62964-42.08234zM437.007 396.23371l.62964-42.08234h65.84241l.62964 42.08234z"/>
  <circle cx="457.7944" cy="153.35761" r="42.01233" fill="#2f2e41"/>
  <path fill="#2f2e41" d="M469.94724876 184.66524285l12.55910896-2.27356055 4.0734659 22.50175492-12.55910895 2.27356054zM444.82909222 189.21229446l12.55910896-2.27356055 4.07346591 22.50175492-12.55910895 2.27356054z"/>
  <ellipse cx="613.67177" cy="387.29848" fill="#2f2e41" rx="10.63602" ry="3.98853" transform="rotate(-40.261 296.13156042 519.52933471)"/>
  <ellipse cx="638.2667" cy="382.84606" fill="#2f2e41" rx="10.63605" ry="3.98853" transform="rotate(-40.261 320.72648574 515.07691299)"/>
  <circle cx="454.85318" cy="143.08115" r="14.35864" fill="#fff"/>
  <circle cx="448.95181" cy="137.93436" r="4.78622" fill="#3f3d56"/>
  <path fill="#6c63ff" d="M490.93625 107.65269c.63177-15.55359-12.77313-28.7276-29.9408-29.42493s-31.59692 11.346-32.22873 26.8996 11.30191 19.08746 28.46955 19.78485 33.0682-1.70594 33.69998-17.25952z"/>
  <ellipse cx="579.68164" cy="319.59634" fill="#2f2e41" rx="6.59448" ry="21.00616" transform="rotate(-77.09 390.2110273 333.48864628)"/>
  <ellipse cx="662.15028" cy="333.31081" fill="#2f2e41" rx="6.59448" ry="21.00616" transform="rotate(-77.09 472.67965962 347.20311334)"/>
  <path fill="#fff" d="M469.3331 169.91416a9.57243 9.57243 0 11-18.8353 3.42883l-.00335-.01849c-.94175-5.20215 3.08038-7.043 8.28256-7.98474s9.61438-.62775 10.55609 4.5744z"/>
  <ellipse cx="469.86576" cy="467.52635" fill="#2f2e41" rx="21.53369" ry="6.76007" transform="rotate(-69.082 263.21226956 497.29593196)"/>
  <circle cx="430.05859" cy="500.04835" r="43.06735" fill="#2f2e41" transform="rotate(-80.783 247.52553022 507.530286)"/>
  <path fill="#2f2e41" d="M249.75315 359.95537h13.08374v23.44171h-13.08374zM275.92063 359.95537h13.08374v23.44171h-13.08374z"/>
  <ellipse cx="260.65629" cy="383.66967" fill="#2f2e41" rx="10.90314" ry="4.08868"/>
  <ellipse cx="286.82377" cy="383.12453" fill="#2f2e41" rx="10.90314" ry="4.08868"/>
  <path fill="#6c63ff" d="M227.60203 286.10434c-3.47748-15.57379 7.63867-31.31046 24.82861-35.14884s33.94422 5.67508 37.42169 21.24888-7.91491 21.31765-25.10485 25.156-33.66797 4.31774-37.14545-11.25604z"/>
  <ellipse cx="381.55043" cy="480.06495" fill="#2f2e41" rx="6.76007" ry="21.53368" transform="rotate(-64.626 163.74340014 520.14061845)"/>
  <circle cx="82.9008" cy="369.76318" r="43.06733" fill="#2f2e41"/>
  <path fill="#2f2e41" d="M63.27519 403.56287h13.08374v23.44171H63.27519zM89.44267 403.56287h13.08374v23.44171H89.44267z"/>
  <ellipse cx="74.17827" cy="427.27716" fill="#2f2e41" rx="10.90314" ry="4.08868"/>
  <ellipse cx="100.34581" cy="426.732" fill="#2f2e41" rx="10.90314" ry="4.08868"/>
  <circle cx="83.99113" cy="358.86008" r="14.71922" fill="#fff"/>
  <circle cx="83.99113" cy="358.86008" r="4.90642" fill="#3f3d56"/>
  <path fill="#e6e6e6" d="M41.12401 329.71183c-3.47748-15.57379 7.63867-31.31043 24.82861-35.14881s33.94421 5.67511 37.42169 21.2489-7.91492 21.31769-25.10486 25.156-33.66791 4.31776-37.14544-11.25609z"/>
  <ellipse cx="268.66855" cy="387.38342" fill="#2f2e41" rx="21.53369" ry="6.76007" transform="rotate(-69.082 62.01507328 417.15300213)"/>
  <circle cx="228.86138" cy="419.90542" r="43.06735" fill="#2f2e41" transform="rotate(-80.783 46.3283189 427.3873544)"/>
  <path fill="#2f2e41" d="M48.55595 279.81244h13.08374v23.44171H48.55595zM74.72343 279.81244h13.08374v23.44171H74.72343z"/>
  <ellipse cx="59.45909" cy="303.52674" fill="#2f2e41" rx="10.90314" ry="4.08868"/>
  <ellipse cx="85.62657" cy="302.9816" fill="#2f2e41" rx="10.90314" ry="4.08868"/>
  <circle cx="69.27189" cy="235.10965" r="14.71922" fill="#fff"/>
  <circle cx="69.27189" cy="235.10965" r="4.90642" fill="#3f3d56"/>
  <path fill="#6c63ff" d="M26.40483 205.96134c-3.47748-15.57379 7.63867-31.31046 24.82861-35.14884s33.94422 5.67508 37.42169 21.24888-7.91491 21.31765-25.10485 25.156-33.66797 4.31781-37.14545-11.25604z"/>
  <ellipse cx="180.35323" cy="399.92202" fill="#2f2e41" rx="6.76007" ry="21.53368" transform="rotate(-64.626 -37.4537991 439.9976914)"/>
  <path fill="#fff" d="M47.02702 261.54972c0 4.21515 10.85327 12.53857 22.89655 12.53857s23.33514-11.867 23.33514-16.08209-11.29193.81775-23.33514.81775-22.89655-1.48938-22.89655 2.72577z"/>
  <path fill="#6c63ff" d="M110.52376 81.56869a3.00328 3.00328 0 00-3 3v124a3.00328 3.00328 0 003 3h287a3.00328 3.00328 0 003-3v-124a3.00328 3.00328 0 00-3-3z"/>
  <circle cx="188.01816" cy="146.56869" r="29.1211" fill="#fff"/>
  <path fill="#fff" d="M253.7436 142.69417a3.40529 3.40529 0 000 6.80966h91.94566a3.40529 3.40529 0 10.11181-6.80966q-.05591-.00095-.11181 0zM253.7436 122.96697a3.40529 3.40529 0 000 6.80966h45.91557a3.40529 3.40529 0 10.1118-6.80966q-.0559-.00095-.1118 0zM253.7436 163.36076a3.40529 3.40529 0 000 6.80966h91.94566a3.40529 3.40529 0 10.11181-6.80966q-.05591-.001-.11181 0z" data-name="Path 40"/>
  <ellipse cx="853.28249" cy="546.50272" fill="#2f2e41" rx="6.76007" ry="21.53369" transform="rotate(-20.918 301.93757553 894.7732639)"/>
  <circle cx="884.08966" cy="588.02473" r="43.06733" fill="#2f2e41" transform="rotate(-9.217 -274.83423523 1497.70907191)"/>
  <path fill="#2f2e41" d="M743.035 447.932h-13.083l2.56 28.073 10.546-2.865-.023-25.208zM714.512 448.005h-13.084l2.56 28.073 10.07-2.938.454-25.135z"/>
  <ellipse cx="863.99793" cy="647.21172" fill="#2f2e41" rx="10.90314" ry="4.08868" transform="rotate(-4.182 -1597.91690838 2760.88330216)"/>
  <circle cx="722.31949" cy="403.22896" r="14.71922" fill="#fff"/>
  <circle cx="722.31949" cy="403.22896" r="4.90642" fill="#3f3d56"/>
  <ellipse cx="929.59781" cy="558.04133" fill="#2f2e41" rx="21.53368" ry="6.76007" transform="rotate(-53.55 676.9463335 630.31393457)"/>
  <path fill="#fff" d="M702.39698 436.33866c0-3.474 8.945-10.334 18.8708-10.334s19.23228 9.7805 19.23228 13.25448-9.30655-.674-19.23228-.674-18.8708 1.22754-18.8708-2.24648z"/>
  <path fill="#6c63ff" d="M844.1767 378.54172l-235.74553-32.68108a7.0085 7.0085 0 01-5.97249-7.8949l26.50189-191.17178a7.00819 7.00819 0 017.8949-5.97249l235.74551 32.68109a7.00818 7.00818 0 015.97249 7.8949L852.0716 372.56924a7.00848 7.00848 0 01-7.8949 5.97248z"/>
  <path fill="#fff" d="M759.72231 318.87957l-120.35447-16.68459a2.47686 2.47686 0 01-.44482-.098l70.59053-90.70626a4.02366 4.02366 0 016.93772.96176l29.02932 71.46232 1.39127 3.41979z"/>
  <path d="M759.722 318.879l-41.092-5.696 24.234-26.504 1.745-1.909.872-.955 1.391 3.42 12.85 31.644z" opacity=".2" style="isolation:isolate"/>
  <path fill="#fff" d="M826.73481 328.16942l-104.09674-14.43079 24.23379-26.504 1.74426-1.90948 31.57921-34.54012a5.36964 5.36964 0 017.96051.62248 4.79638 4.79638 0 01.3131.52448z"/>
  <circle cx="761.18602" cy="224.18353" r="18" fill="#fff"/>
  <path fill="#3f3d56" d="M640.87685504 155.51722644l21.79166 3.02104-3.02104 21.79166-21.79166-3.02104z"/>
  <path fill="#f2f2f2" d="M765.18655 374.08068c3.47748-15.57379-7.63867-31.31046-24.82861-35.14884s-33.94421 5.67508-37.42169 21.24887 7.91492 21.31766 25.10486 25.156 33.66797 4.31779 37.14544-11.25603z"/>
  <ellipse cx="892.69043" cy="647.14249" fill="#2f2e41" rx="10.90314" ry="4.08868" transform="rotate(-4.182 -1569.22444926 2760.81407908)"/>
</svg>