<svg xmlns="http://www.w3.org/2000/svg" data-name="Layer 1" viewBox="0 0 718.5864 557.81713">
  <defs/>
  <ellipse cx="333" cy="546.81713" fill="#e6e6e6" rx="333" ry="11"/>
  <circle cx="328" cy="137.81713" r="41" fill="#6c63ff"/>
  <path fill="#ffb8b8" d="M317.15534 232.61644l-18.55262-14.19824-66.41937 120.30127a10.80087 10.80087 0 1012.61877 9.06787zM486.49982 300.89671a10.8073 10.8073 0 00-10.64874-7.269l-107.016-83.9458-16.05163 16.97412 112.7362 78.57812a10.80171 10.80171 0 1020.98017-4.3374zM362.3 535.033h12.608l6-48.629H362.3v48.629z"/>
  <path fill="#2f2e41" d="M399.22213 546.73959h-39.62365v-15.30911h24.31453a15.30912 15.30912 0 0115.30912 15.30912v-.00001z"/>
  <path fill="#ffb8b8" d="M262.401 523.777l11.583 4.978 24.714-42.309-17.096-7.347-19.201 44.678z"/>
  <path fill="#2f2e41" d="M291.70059722 549.11096993l-36.40414127-15.64519534 6.04473555-14.0652387 22.3389577 9.60048348a15.30912 15.30912 0 018.02045197 20.10994137l-.00000395.00000919zM301.69827 301.86618l-59.97436 188.93475 78.71637 8.4339L328 388.81712l10.2452 110.41771 63.72278-7.49682s-11.51086-174.87827-32.46278-186.12345-67.80693-3.74838-67.80693-3.74838z"/>
  <circle cx="334.2169" cy="162.46171" r="26.2388" fill="#ffb8b8"/>
  <path fill="#2f2e41" d="M333.37647 310.33568c-18.21924 0-35.75293-.80762-36.65674-2.374a.66322.66322 0 01.12842-.82617c1.25341-1.8457-1.68946-31.84668-7.88624-80.23633a25.06559 25.06559 0 0116.50829-26.71096l.11572-.02637 54.91406-5.42285.61524.17285a24.84357 24.84357 0 0118.15771 25.15625c-1.416 30.86816-3.792 83.15039-3.792 86.4834 0 .90722-1.26221 1.36133-2.36182 1.65625-5.34665 1.43261-22.83981 2.12793-39.74264 2.12793zm-35.82081-2.49312z"/>
  <path fill="#f2f2f2" d="M50.42091853 168.7349575l61.23035374-76.51715586 76.51715586 61.23035374-61.23035375 76.51715586z"/>
  <path fill="#3f3d56" d="M126.40655 247.14502a22 22 0 1125.06414-18.43337 22 22 0 01-25.06414 18.43337zm6.32935-41.52034a20 20 0 1016.75762 22.78555 20.02228 20.02228 0 00-16.75762-22.78555z"/>
  <path fill="#e6e6e6" d="M79.57767 495.2032c-7.50989 25.08633 4.14543 50.73455 4.14543 50.73455s23.83128-15.0248 31.34122-40.11118-4.14543-50.73454-4.14543-50.73454-23.83128 15.0248-31.34122 40.11117z"/>
  <path fill="#e6e6e6" d="M90.9801 495.88173c6.32063 25.41208-6.52916 50.48313-6.52916 50.48313s-23.09755-16.13006-29.41818-41.54214 6.52916-50.48314 6.52916-50.48314 23.0976 16.12998 29.41818 41.54215z"/>
  <path fill="#6c63ff" d="M297.31761 145.08279a90.60941 90.60941 0 0045.54214 11.00377c6.08348-.15784 12.7862-1.26445 16.63892-5.9751 4.34716-5.31518 3.25937-13.62-.93393-19.05742s-10.75383-8.50272-17.29812-10.58149c-6.192-1.96687-12.82694-3.23363-19.17668-1.85868a23.879 23.879 0 00-17.30438 31.72434"/>
  <circle cx="299" cy="108.81713" r="23" fill="#6c63ff"/>
  <path fill="#3f3d56" d="M714.61348 111.3674l-90.28442-52.62109 11.58166-19.87109a5.00003308 5.00003308 0 10-8.63965-5.03565l-11.58166 19.87109-90.28443-52.6211a8 8 0 00-10.94012 2.8833l-70.49707 120.95509a8.00033 8.00033 0 002.8833 10.94043l90.28442 52.62109-79.05737 135.64258a4.99991 4.99991 0 108.63965 5.03516l79.05741-135.64258 90.28449 52.62109a7.99963 7.99963 0 0010.94012-2.8833l70.49707-120.95508a7.99972 7.99972 0 00-2.8834-10.93994z"/>
  <ellipse cx="797.26866" cy="336.17956" opacity=".1" rx="10" ry="38" style="isolation:isolate" transform="rotate(-59.765 528.0410109 460.083585)"/>
  <circle cx="580.73228" cy="123.61775" r="48" fill="#6c63ff"/>
  <path fill="#f2f2f2" d="M601.61574 147.36391c-2.781 4.77155-22.39616 7.78086-36.71081-.56224s-17.90816-24.87926-15.12714-29.65081 10.8835 4.02839 25.19815 12.37149 29.42085 13.07004 26.6398 17.84156z"/>
  <circle cx="570.28539" cy="97.85222" r="10" fill="#f2f2f2"/>
  <circle cx="606.57196" cy="119.00135" r="10" fill="#f2f2f2"/>
</svg>