<svg xmlns="http://www.w3.org/2000/svg" viewBox="0 0 63.999 63.999">
  <defs/>
  <defs>
    <linearGradient id="a" x1="-.106" x2=".5" y1="-.25" y2="1" gradientUnits="objectBoundingBox">
      <stop offset="0" stop-color="#0d334d"/>
      <stop offset="1" stop-color="#45a3e2"/>
    </linearGradient>
  </defs>
  <g fill="url(#a)">
    <path d="M23.797 35.949h-4.329a12.577 12.577 0 000 7.185h4.329a35.291 35.291 0 010-7.185zm0 0M31.999 26.482c-.619 0-1.688.816-2.665 3.115a17.411 17.411 0 00-.771 2.273h6.873c-.98-3.643-2.488-5.388-3.437-5.388zm0 0M64 14.489v-7.9A6.742 6.742 0 0057.125 0H6.874A6.742 6.742 0 000 6.585v7.9zM54.5 7.3a1.8 1.8 0 11-1.875 1.8A1.837 1.837 0 0154.5 7.3zm-7.5 0a1.8 1.8 0 11-1.875 1.8A1.837 1.837 0 0147 7.3zm-7.5 0a1.8 1.8 0 11-1.875 1.8A1.837 1.837 0 0139.5 7.3zm0 0M39.518 31.908h3.176a12.668 12.668 0 00-4.454-3.937 21.515 21.515 0 011.278 3.937zm0 0M21.305 31.908h3.176a21.492 21.492 0 011.278-3.937 12.668 12.668 0 00-4.454 3.937zm0 0M24.481 47.135h-3.176a12.668 12.668 0 004.454 3.937 21.517 21.517 0 01-1.278-3.937zm0 0M40.203 43.134h4.331a12.577 12.577 0 000-7.185h-4.329a35.29 35.29 0 01-.002 7.185zm0 0M31.999 52.578c.619 0 1.688-.816 2.665-3.115a17.4 17.4 0 00.771-2.273h-6.873c.98 3.643 2.489 5.388 3.437 5.388zm0 0"/>
    <path d="M0 18.081v38.923a6.944 6.944 0 006.874 7h50.25a6.944 6.944 0 006.874-7V18.081zM32 56.24a17.174 17.174 0 010-34.343 17.174 17.174 0 010 34.343zm0 0"/>
    <path d="M27.889 35.949a31.812 31.812 0 000 7.185h8.215a31.869 31.869 0 000-7.185zm0 0M38.24 51.073a12.664 12.664 0 004.454-3.938h-3.176a21.531 21.531 0 01-1.278 3.938zm0 0"/>
  </g>
</svg>