<svg xmlns="http://www.w3.org/2000/svg" viewBox="0 0 63 63">
  <defs/>
  <defs>
    <linearGradient id="a" x1="-.106" x2=".5" y1="-.25" y2="1" gradientUnits="objectBoundingBox">
      <stop offset="0" stop-color="#0d334d"/>
      <stop offset="1" stop-color="#45a3e2"/>
    </linearGradient>
  </defs>
  <g fill="url(#a)" transform="translate(0 -.5)">
    <path d="M62.594 27.03a1.847 1.847 0 00-1.44-.69H9.229a1.845 1.845 0 00-1.8 1.445L.044 61.253a1.853 1.853 0 00.362 1.556 2.1 2.1 0 001.563.69h51.8a1.846 1.846 0 001.8-1.446l7.383-33.468a1.851 1.851 0 00-.358-1.555zM48.111 54.271a1.845 1.845 0 01-1.846 1.846H31.5a1.845 1.845 0 01-1.846-1.846v-7.383A1.844 1.844 0 0131.5 45.04h14.765a1.844 1.844 0 011.846 1.846zm0 0"/>
    <path d="M33.346 48.738H44.42v3.691H33.346zm0 0M7.383 22.965v-7.7H1.846A1.845 1.845 0 000 17.111v27.321l3.823-17.447a5.5 5.5 0 013.56-4.022zm0 0M37.036 22.648v-6.242a7.32 7.32 0 001.846-4.832c0-3.583-5.005-9.373-6.009-10.49a1.907 1.907 0 00-2.747 0c-1.004 1.116-6.009 6.907-6.009 10.49a7.321 7.321 0 001.846 4.832v6.242zm0 0M61.6 5.967l-9.978-4.8a1.815 1.815 0 00-1.411-.078 1.842 1.842 0 00-1.053.941l-8.426 17.521v3.1h12.971l-5.091-2.449a1.846 1.846 0 011.6-3.327l6.654 3.2 1.6-3.326-6.653-3.2a1.846 1.846 0 111.6-3.327l6.654 3.2 2.4-4.989a1.845 1.845 0 00-.863-2.464zm0 0M11.074 22.648h11.2v-4.975a11.037 11.037 0 01-1.166-2.408H11.074zm0 0M18.485 1.733a1.92 1.92 0 00-3.5 0l-3.267 9.841h8.712a9.354 9.354 0 01.456-2.621zm0 0"/>
  </g>
</svg>