<svg xmlns="http://www.w3.org/2000/svg" viewBox="0 0 63.623 63.623">
  <defs/>
  <defs>
    <linearGradient id="a" x1="-.106" x2=".5" y1="-.25" y2="1" gradientUnits="objectBoundingBox">
      <stop offset="0" stop-color="#0d334d"/>
      <stop offset="1" stop-color="#45a3e2"/>
    </linearGradient>
  </defs>
  <path fill="url(#a)" d="M56.088 11.981H18.2a6.57 6.57 0 00-6.514 6.606v26.752a6.555 6.555 0 006.514 6.589h21.679a1.856 1.856 0 011.3.555L51.95 62.556c.6.589 1.59.347 1.59-.5V53.28c0-1.04.65-1.37 1.676-1.37h.171c3.59 0 7.2-2.93 7.2-6.588V18.587a6.533 6.533 0 00-6.499-6.606z" transform="translate(1.039 .743)"/>
  <path fill="url(#a)" d="M19.693 14.972h28.48v-7.1a4.662 4.662 0 00-4.807-4.5H8.182a4.662 4.662 0 00-4.807 4.5v22.814a4.662 4.662 0 004.807 4.5h5.669V23.068a11.056 11.056 0 012.134-5.954 5.426 5.426 0 013.708-2.142z" transform="translate(-3.375 -3.375)"/>
</svg>